HIERARCHY
ROOT Hips
{
	OFFSET 0.000000 0.000000 0.000000 
	CHANNELS 6 Xposition Yposition Zposition Zrotation Yrotation Xrotation
	JOINT LHipJoint
	{
		OFFSET 0.000000 0.000000 0.000000 
		CHANNELS 3 Zrotation Yrotation Xrotation
		JOINT LeftUpLeg
		{
			OFFSET 0.085211 -0.098391 0.069398 
			CHANNELS 3 Zrotation Yrotation Xrotation
			JOINT LeftLeg
			{
				OFFSET 0.149043 -0.409492 0.000000 
				CHANNELS 3 Zrotation Yrotation Xrotation
				JOINT LeftFoot
				{
					OFFSET 0.148229 -0.407256 0.000000 
					CHANNELS 3 Zrotation Yrotation Xrotation
					JOINT LeftToeBase
					{
						OFFSET 0.018174 -0.049932 0.125871 
						CHANNELS 3 Zrotation Yrotation Xrotation
						End Site
						{
							OFFSET 0.000000 -0.000000 0.067452 
						}
					}
				}
			}
		}
	}
	JOINT RHipJoint
	{
		OFFSET 0.000000 0.000000 0.000000 
		CHANNELS 3 Zrotation Yrotation Xrotation
		JOINT RightUpLeg
		{
			OFFSET -0.085218 -0.098391 0.069398 
			CHANNELS 3 Zrotation Yrotation Xrotation
			JOINT RightLeg
			{
				OFFSET -0.143476 -0.394198 0.000000 
				CHANNELS 3 Zrotation Yrotation Xrotation
				JOINT RightFoot
				{
					OFFSET -0.150616 -0.413812 0.000000 
					CHANNELS 3 Zrotation Yrotation Xrotation
					JOINT RightToeBase
					{
						OFFSET -0.014498 -0.039833 0.120145 
						CHANNELS 3 Zrotation Yrotation Xrotation
						End Site
						{
							OFFSET -0.000000 -0.000000 0.063476 
						}
					}
				}
			}
		}
	}
	JOINT LowerBack
	{
		OFFSET 0.000000 0.000000 0.000000 
		CHANNELS 3 Zrotation Yrotation Xrotation
		JOINT Spine
		{
			OFFSET -0.005353 0.127251 -0.015351 
			CHANNELS 3 Zrotation Yrotation Xrotation
			JOINT Spine1
			{
				OFFSET -0.000023 0.128558 0.000135 
				CHANNELS 3 Zrotation Yrotation Xrotation
				JOINT Neck
				{
					OFFSET 0.000000 0.000000 0.000000 
					CHANNELS 3 Zrotation Yrotation Xrotation
					JOINT Neck1
					{
						OFFSET -0.002290 0.105947 0.019868 
						CHANNELS 3 Zrotation Yrotation Xrotation
						JOINT Head
						{
							OFFSET 0.000583 0.106363 -0.028758 
							CHANNELS 3 Zrotation Yrotation Xrotation
							End Site
							{
								OFFSET 0.000777 0.111013 -0.012111 
							}
						}
					}
				}
				JOINT LeftShoulder
				{
					OFFSET 0.000000 0.000000 0.000000 
					CHANNELS 3 Zrotation Yrotation Xrotation
					JOINT LeftArm
					{
						OFFSET 0.233965 0.050822 -0.022904 
						CHANNELS 3 Zrotation Yrotation Xrotation
						JOINT LeftForeArm
						{
							OFFSET 0.310741 -0.000000 -0.000000 
							CHANNELS 3 Zrotation Yrotation Xrotation
							JOINT LeftHand
							{
								OFFSET 0.209882 -0.000000 0.000000 
								CHANNELS 3 Zrotation Yrotation Xrotation
								JOINT LeftFingerBase
								{
									OFFSET 0.000000 0.000000 0.000000 
									CHANNELS 3 Zrotation Yrotation Xrotation
									JOINT LeftHandIndex1
									{
										OFFSET 0.038924 -0.000000 0.000000 
										CHANNELS 3 Zrotation Yrotation Xrotation
										End Site
										{
											OFFSET 0.031381 -0.000000 0.000000 
										}
									}
								}
								JOINT LThumb
								{
									OFFSET 0.000000 0.000000 0.000000 
									CHANNELS 3 Zrotation Yrotation Xrotation
									End Site
									{
										OFFSET 0.031860 -0.000000 0.031860 
									}
								}
							}
						}
					}
				}
				JOINT RightShoulder
				{
					OFFSET 0.000000 0.000000 0.000000 
					CHANNELS 3 Zrotation Yrotation Xrotation
					JOINT RightArm
					{
						OFFSET -0.234616 0.031666 -0.004078 
						CHANNELS 3 Zrotation Yrotation Xrotation
						JOINT RightForeArm
						{
							OFFSET -0.310308 -0.000000 -0.000000 
							CHANNELS 3 Zrotation Yrotation Xrotation
							JOINT RightHand
							{
								OFFSET -0.209331 -0.000000 0.000000 
								CHANNELS 3 Zrotation Yrotation Xrotation
								JOINT RightFingerBase
								{
									OFFSET 0.000000 0.000000 0.000000 
									CHANNELS 3 Zrotation Yrotation Xrotation
									JOINT RightHandIndex1
									{
										OFFSET -0.039878 -0.000000 0.000000 
										CHANNELS 3 Zrotation Yrotation Xrotation
										End Site
										{
											OFFSET -0.032151 -0.000000 0.000000 
										}
									}
								}
								JOINT RThumb
								{
									OFFSET 0.000000 0.000000 0.000000 
									CHANNELS 3 Zrotation Yrotation Xrotation
									End Site
									{
										OFFSET -0.032641 -0.000000 0.032641 
									}
								}
							}
						}
					}
				}
			}
		}
	}
}
MOTION
Frames: 11
Frame Time: 0.008333
1.065544 0.932487 -0.979381 -113.305000 -82.493896 -959.466003 0.000000 0.000000 0.000000 -15.893200 5.917600 -15.595200 20.825001 19.983700 92.412903 -0.025300 8.968800 -12.306300 0.001100 0.214900 0.590600 0.000000 0.000000 0.000000 18.280600 1.890900 -32.653400 -8.136500 -16.218700 53.052898 -1.924000 2.845400 -25.496799 -0.655400 5.178200 -14.417700 8.713400 -3.035300 15.450400 2.205800 -2.867300 4.684600 -2.028900 -1.561400 -3.929800 6.559800 13.047300 -23.027000 -19.704201 21.332100 20.970100 -4.415900 7.328200 14.211200 -0.000000 -0.000000 0.000000 -78.960197 8.917700 51.114799 37.591301 -46.576302 -16.668100 -0.000000 0.000000 -19.774900 29.573400 -2.554400 -1.448800 -7.125000 0.000000 -0.000000 2.281600 27.041700 -0.995600 -0.000000 -0.000000 0.000000 60.948299 -12.929700 49.906502 -41.439701 48.900101 -19.517300 0.000000 -0.000000 -6.746000 -8.695400 -16.990900 2.558900 7.125000 -0.000000 -0.000000 18.046200 -46.332401 -0.613100 
1.028156 0.934356 -0.979319 -107.543999 -81.966698 -965.219971 0.000000 0.000000 0.000000 -14.185600 4.666800 -22.082399 22.228701 19.880501 96.528801 0.177500 7.316300 -13.733100 0.004600 0.438700 1.205400 0.000000 0.000000 0.000000 19.237801 1.258300 -28.927900 -7.711400 -15.902800 51.516300 -2.154800 2.421700 -27.136600 -0.504700 4.554200 -12.641300 9.116500 -2.478000 15.494800 2.410900 -2.044600 4.505000 -2.191800 -1.167000 -4.064900 6.785100 12.712100 -22.722500 -19.441000 20.822800 21.571800 -4.509300 7.145300 14.302100 -0.000000 0.000000 0.000000 -78.662399 11.592700 51.609402 36.470798 -45.834202 -15.859300 -0.000000 0.000000 -19.350599 29.786200 -2.445800 -1.399200 -7.125000 0.000000 -0.000000 2.449100 27.160101 -1.062000 -0.000000 0.000000 0.000000 60.916698 -10.527200 49.741402 -41.014999 48.659901 -19.197901 0.000000 -0.000000 -5.424800 -11.131600 -16.356300 3.171600 7.125000 -0.000000 -0.000000 15.622100 -46.025700 -0.405300 
0.989619 0.938150 -0.978431 -102.087997 -81.607903 -970.736023 0.000000 0.000000 0.000000 -13.055900 3.285200 -28.270700 22.866699 19.801800 98.408302 0.255600 7.090200 -14.675300 0.023900 0.997600 2.742300 0.000000 0.000000 0.000000 20.055401 0.141800 -24.865999 -7.057100 -15.379800 49.089802 -2.218200 0.488800 -28.065201 -0.545600 4.732100 -13.146100 9.495400 -1.845400 15.296700 2.362000 -1.178600 4.494200 -2.628000 -0.734700 -3.881800 6.316500 12.340000 -23.484400 -17.911200 20.243500 22.803699 -3.979100 6.929300 14.573400 0.000000 -0.000000 0.000000 -77.432404 14.230500 52.651798 36.832500 -46.077202 -16.119301 -0.000000 0.000000 -19.610500 27.655899 -0.423200 -0.221800 -7.125000 0.000000 -0.000000 0.855300 29.501400 -0.323300 0.000000 -0.000000 0.000000 61.576099 -8.953200 48.632702 -42.209301 49.325699 -20.099100 0.000000 -0.000000 -5.050600 -11.617000 -16.202101 3.283000 7.125000 -0.000000 -0.000000 15.131300 -45.935501 -0.357500 
0.949606 0.945162 -0.976650 -95.482597 -81.529900 -977.117981 0.000000 0.000000 0.000000 -12.691900 1.470800 -34.199100 22.723801 19.821199 97.986603 0.464400 6.988000 -17.296400 0.016600 -0.833100 -2.289600 0.000000 0.000000 0.000000 20.514299 -1.203300 -20.543800 -6.126100 -14.549400 45.485600 -2.221300 -0.481800 -28.396400 -0.766300 5.590000 -15.599300 9.565900 -1.251400 14.675400 2.187900 -0.450200 4.438300 -2.995500 -0.355600 -3.524000 6.078300 11.847800 -24.308500 -17.027000 19.495399 23.581600 -3.763900 6.612100 14.794900 0.000000 0.000000 0.000000 -75.752296 16.912800 54.106400 38.055901 -46.875000 -17.006399 -0.000000 0.000000 -19.346100 25.847900 -4.016900 -1.943700 -7.125000 0.000000 -0.000000 -0.594300 25.517900 0.280300 0.000000 0.000000 0.000000 62.112000 -8.415700 47.304600 -45.063202 50.799400 -22.287701 0.000000 -0.000000 -5.143800 -9.556400 -17.682199 2.927300 7.125000 -0.000000 -0.000000 17.525000 -47.105801 -0.938500 
0.907637 0.953544 -0.974056 -89.354897 -81.359497 -982.760010 0.000000 0.000000 0.000000 -12.379000 -0.546600 -38.946098 21.824800 19.920000 95.342102 0.734900 6.363900 -19.733101 0.002400 0.318800 0.876000 0.000000 0.000000 0.000000 20.895599 -2.240600 -16.033600 -5.104900 -13.501000 41.273998 -2.102400 -0.439900 -27.611700 -1.105200 6.679600 -18.769699 9.336300 -0.632600 13.580100 2.135900 0.230900 4.312300 -3.041700 0.009400 -2.987100 6.206500 11.477200 -24.907600 -17.178600 19.050600 24.063801 -3.956900 6.345800 15.112600 -0.000000 0.000000 0.000000 -74.278099 19.642000 55.643200 39.459400 -47.746399 -18.038099 -0.000000 0.000000 -18.234400 23.595900 -5.756800 -2.508800 -7.125000 0.000000 -0.000000 -2.308200 23.702600 1.186600 -0.000000 0.000000 0.000000 62.313099 -8.142100 47.343800 -48.302502 52.287498 -24.824900 0.000000 -0.000000 -9.084900 -11.245900 -18.189100 3.551700 7.125000 -0.000000 -0.000000 16.167999 -47.822800 -1.154500 
0.863056 0.966000 -0.970487 -83.607300 -81.462601 -988.166992 0.000000 0.000000 0.000000 -12.635800 -2.041700 -42.412998 20.190399 19.999100 90.556801 0.953300 5.862200 -21.459000 0.005600 0.484300 1.330700 0.000000 0.000000 0.000000 20.770500 -3.138000 -10.871900 -4.031600 -12.202300 36.451401 -1.750800 -0.796200 -25.325800 -1.310600 7.251700 -20.463100 8.525000 0.059700 12.371300 2.103400 0.937000 4.196300 -2.721800 0.389300 -2.390300 5.294300 10.927800 -25.937300 -15.890000 18.427601 25.362801 -3.449200 6.026600 15.517400 -0.000000 0.000000 0.000000 -72.811897 22.245001 57.566399 40.719601 -48.490501 -18.976299 -0.000000 0.000000 -16.843800 21.664700 -7.725300 -3.056600 -7.125000 0.000000 -0.000000 -3.750900 21.681999 2.104200 -0.000000 0.000000 0.000000 62.338100 -8.457300 47.455799 -51.577000 53.612000 -27.438601 0.000000 -0.000000 -12.781300 -12.370800 -17.932400 3.863400 7.125000 -0.000000 -0.000000 15.035800 -47.727299 -1.033900 
0.817375 0.978894 -0.966106 -77.954803 -81.458801 -993.340027 0.000000 0.000000 0.000000 -12.923000 -3.511000 -45.246700 17.970301 19.900900 84.056198 1.114800 5.648100 -22.734699 0.005000 0.454600 1.249300 0.000000 0.000000 0.000000 20.534599 -3.921100 -5.833200 -3.029100 -10.742000 31.414801 -1.209200 -1.947900 -21.559999 -1.402800 7.492100 -21.181801 7.566700 0.814000 10.918700 2.150300 1.720100 4.002900 -2.216200 0.804500 -1.755700 4.462100 10.298900 -26.457600 -14.826400 17.650600 26.257999 -3.079200 5.685000 15.678600 0.000000 0.000000 0.000000 -71.297302 24.673100 59.428600 42.729801 -49.606602 -20.494699 -0.000000 0.000000 -17.117599 18.582600 -7.955300 -2.664100 -7.125000 0.000000 -0.000000 -5.990500 21.610600 3.381300 0.000000 0.000000 0.000000 62.303699 -9.348600 47.528500 -55.197601 54.888100 -30.377600 0.000000 -0.000000 -16.540300 -13.224300 -17.507799 4.043800 7.125000 -0.000000 -0.000000 14.098700 -47.426601 -0.860500 
0.771225 0.991819 -0.960913 -73.669701 -81.198799 -996.995972 0.000000 0.000000 0.000000 -13.011300 -4.498500 -47.447601 15.333300 19.469601 76.238602 1.194900 5.173900 -23.114201 0.015100 -0.792500 -2.178100 0.000000 0.000000 0.000000 20.404200 -4.704300 -0.943800 -2.105300 -9.082100 26.052401 -0.607800 -3.405200 -16.357599 -1.369500 7.406400 -20.925100 6.748600 1.634400 9.474300 2.219300 2.643700 3.692200 -1.750800 1.281100 -1.250400 3.230100 9.655400 -27.595699 -13.289700 16.969601 27.716999 -2.415600 5.339600 16.167500 -0.000000 -0.000000 0.000000 -69.540001 27.019600 61.556099 44.858299 -50.698898 -22.129000 -0.000000 0.000000 -17.832500 16.618799 -8.798600 -2.614000 -7.125000 0.000000 -0.000000 -7.396900 20.837500 4.317400 -0.000000 -0.000000 0.000000 62.471901 -10.648600 47.222698 -58.957699 56.025700 -33.475201 0.000000 -0.000000 -19.445999 -13.465600 -16.667801 3.928800 7.125000 -0.000000 -0.000000 13.598500 -46.628399 -0.556500 
0.723037 1.006275 -0.954825 -70.673500 -80.836601 -999.328003 0.000000 0.000000 0.000000 -13.207400 -4.731700 -48.695400 12.470500 18.582500 67.472504 1.193900 4.659300 -22.804800 0.000600 0.158100 0.434300 0.000000 0.000000 0.000000 20.247601 -5.509300 3.404200 -1.328500 -7.299200 20.604799 -0.019800 -6.233100 -9.398700 -1.278100 7.164700 -20.204201 6.063900 2.441800 7.775000 2.208500 3.555900 3.471000 -1.390900 1.758700 -0.518400 3.123700 9.114200 -28.011700 -13.038300 16.264000 28.446699 -2.477500 5.008500 16.486601 -0.000000 -0.000000 0.000000 -67.535202 29.036800 63.787399 47.089199 -51.751900 -23.868500 -0.000000 0.000000 -19.279200 15.607600 -9.637000 -2.677400 -7.125000 0.000000 -0.000000 -8.104700 20.029699 4.887200 -0.000000 -0.000000 0.000000 62.751598 -11.806400 46.907501 -62.054600 56.833000 -36.055901 0.000000 -0.000000 -21.073299 -13.148800 -15.504200 3.573200 7.125000 -0.000000 -0.000000 13.524100 -45.436298 -0.148400 
0.673406 1.019719 -0.947837 -69.673500 -80.428802 -999.450012 0.000000 0.000000 0.000000 -13.491700 -4.368900 -49.652100 9.732600 17.256701 58.590900 1.119100 4.468600 -22.061199 0.004200 0.418800 1.150800 0.000000 0.000000 0.000000 19.925301 -6.707900 7.601400 -0.681200 -5.277000 14.700300 0.353400 -10.563000 -2.385800 -0.711800 5.392000 -15.030200 5.568400 3.258200 5.452500 2.088600 4.465300 3.345500 -1.159700 2.246600 0.667900 2.053300 8.547900 -29.391701 -11.597800 15.633800 29.670900 -1.835600 4.705400 17.018000 -0.000000 0.000000 0.000000 -65.393600 30.629999 65.888802 49.256302 -52.691101 -25.581400 -0.000000 0.000000 -20.479700 15.146700 -10.259000 -2.760100 -7.125000 0.000000 -0.000000 -8.420000 19.419201 5.197600 -0.000000 0.000000 0.000000 63.044800 -12.562600 46.904598 -64.319298 57.355202 -37.957401 0.000000 -0.000000 -21.994301 -12.427000 -14.329200 3.121600 7.125000 -0.000000 -0.000000 13.825600 -44.189701 0.282100 
0.623250 1.032394 -0.939987 -69.711700 -80.411903 -998.172974 0.000000 0.000000 0.000000 -14.324200 -3.678800 -50.695202 7.382400 15.645600 50.306301 0.832600 4.624300 -19.516199 0.011600 0.695800 1.912200 0.000000 0.000000 0.000000 18.936600 -8.343000 12.076100 -0.155400 -2.539900 7.000300 0.456900 -15.708700 5.236700 -0.507100 4.565000 -12.671800 4.741800 4.038700 2.566200 1.800100 5.326800 3.177500 -0.814400 2.704600 2.102200 1.628500 8.088100 -29.600800 -10.703900 14.861200 29.872400 -1.563700 4.472600 16.922600 -0.000000 -0.000000 0.000000 -63.294201 31.970501 67.587997 51.324402 -53.515900 -27.235399 -0.000000 0.000000 -20.697901 14.361400 -11.264400 -2.863200 -7.125000 0.000000 -0.000000 -8.954300 18.441601 5.732300 -0.000000 -0.000000 0.000000 63.331799 -12.993800 47.192699 -65.945602 57.696602 -39.329300 0.000000 -0.000000 -22.673700 -11.697500 -13.078200 2.682400 7.125000 -0.000000 -0.000000 14.120200 -42.877201 0.755900 
